<?xml version="1.0" encoding="iso-8859-1"?>
<!-- Generator: Adobe Illustrator 19.0.0, SVG Export Plug-In . SVG Version: 6.00 Build 0)  -->
<svg version="1.1" id="Capa_1" xmlns="http://www.w3.org/2000/svg" xmlns:xlink="http://www.w3.org/1999/xlink" x="0px" y="0px"
	 viewBox="0 0 512 512" style="enable-background:new 0 0 512 512;" xml:space="preserve">
<g>
	<g>
		<g>
			<path d="M416,355.76c-5.896,0-10.667,4.771-10.667,10.667v20.083c0,5.896,4.771,10.667,10.667,10.667
				c5.896,0,10.667-4.771,10.667-10.667v-20.083C426.667,360.531,421.896,355.76,416,355.76z"/>
			<path d="M416,235.292c-5.896,0-10.667,4.771-10.667,10.667v20.083c0,5.896,4.771,10.667,10.667,10.667
				c5.896,0,10.667-4.771,10.667-10.667v-20.083C426.667,240.063,421.896,235.292,416,235.292z"/>
			<path d="M416,295.531c-5.896,0-10.667,4.771-10.667,10.667v20.073c0,5.896,4.771,10.667,10.667,10.667
				c5.896,0,10.667-4.771,10.667-10.667v-20.073C426.667,300.302,421.896,295.531,416,295.531z"/>
			<path d="M416,114.823c-5.896,0-10.667,4.771-10.667,10.667v20.083c0,5.896,4.771,10.667,10.667,10.667
				c5.896,0,10.667-4.771,10.667-10.667V125.49C426.667,119.594,421.896,114.823,416,114.823z"/>
			<path d="M416,175.063c-5.896,0-10.667,4.771-10.667,10.667v20.073c0,5.896,4.771,10.667,10.667,10.667
				c5.896,0,10.667-4.771,10.667-10.667v-20.073C426.667,179.833,421.896,175.063,416,175.063z"/>
			<path d="M494.604,193.625C505.167,188.5,512,176.792,512,163.792v-57.125C512,83.135,492.854,64,469.333,64H42.667
				C19.146,64,0,83.135,0,106.667v57.125c0,13.01,6.833,24.729,17.396,29.833c12.563,6.063,25.271,29.438,25.271,62.375
				s-12.708,56.313-25.271,62.375C6.833,323.479,0,335.177,0,348.167v51.406C0,427.635,17.938,448,42.667,448h426.667
				C492.854,448,512,428.865,512,405.333v-57.125c0-13-6.833-24.708-17.396-29.833c-12.563-6.063-25.271-29.438-25.271-62.375
				S482.042,199.688,494.604,193.625z M485.313,174.417C463,185.208,448,217.99,448,256s15,70.792,37.313,81.583
				c3.688,1.792,5.354,6.625,5.354,10.625v57.125c0,11.76-9.563,21.333-21.333,21.333h-42.667c0-5.896-4.771-10.667-10.667-10.667
				c-5.896,0-10.667,4.771-10.667,10.667H42.667c-12.75,0-21.333-10.885-21.333-27.094v-51.406c0-3.979,1.646-8.802,5.354-10.583
				C49,326.792,64,294.01,64,256s-15-70.792-37.313-81.583c-3.708-1.781-5.354-6.625-5.354-10.625v-57.125
				c0-11.76,9.563-21.333,21.333-21.333h362.667C405.333,91.229,410.104,96,416,96c5.896,0,10.667-4.771,10.667-10.667h42.667
				c11.771,0,21.333,9.573,21.333,21.333v57.125C490.667,167.792,489,172.625,485.313,174.417z"/>
			<path d="M310.854,234.833c14.188-16.396,27.5-40.385,27.5-58.406c0-9.052-3.458-14.427-6.375-17.333
				c-15.708-15.646-52.396,0.813-75.875,21.094l-88.813-50.5c-9.292-3.573-19.979-1.313-27.125,5.76l-10.333,10.323
				c-2.104,2.104-3.25,5-3.125,7.99c0.125,2.979,1.5,5.771,3.792,7.698l78.729,66.49c-3.208,3.802-6.604,7.792-10.104,11.896
				c-13.125,15.427-27.75,32.604-38.313,46.583l-18.667-9.313c-4.125-2.042-9.042-1.25-12.313,1.99l-20.042,20
				c-2.25,2.26-3.396,5.417-3.083,8.604c0.333,3.177,2.042,6.052,4.708,7.823l38.313,25.5l25.542,38.229
				c1.771,2.656,4.646,4.375,7.833,4.688c0.333,0.031,0.688,0.052,1.042,0.052c2.813,0,5.521-1.115,7.542-3.115l20.042-20
				c3.25-3.25,4.063-8.219,2-12.333l-9.333-18.583c13.979-10.521,31.104-25.042,46.521-38.104c4.167-3.542,8.229-6.979,12.104-10.24
				l66.625,78.604c2,2.344,4.875,3.708,7.938,3.771c3.854-0.302,6.021-1.219,8.083-3.469l9.542-10.448
				c7.083-7.094,9.354-17.719,5.083-28.563L310.854,234.833z M339.792,335.344l-1.688,1.854l-65.646-77.438
				c-3.813-4.458-10.458-5.01-14.938-1.333c-6.167,5.094-13.125,11-20.396,17.167c-17.938,15.198-38.271,32.427-52.417,42.333
				c-4.354,3.031-5.813,8.792-3.438,13.521l9.917,19.781l-5.396,5.385l-19.5-29.208c-0.792-1.167-1.792-2.177-2.958-2.948
				L134.104,305l5.375-5.375l19.854,9.906c4.729,2.365,10.458,0.906,13.5-3.406c9.938-14.167,27.271-34.51,42.542-52.458
				c6.125-7.198,12-14.094,17.063-20.198c3.729-4.51,3.146-11.188-1.333-14.958l-77.979-65.854l2.104-2.104
				c1.167-1.156,2.896-1.531,2.958-1.635l94.146,53.667c4.208,2.385,9.417,1.708,12.833-1.719
				c19.292-19.25,46.438-29.427,51.521-26.927c2.938,5.635-7.25,32.604-26.521,51.833c-3.396,3.396-4.104,8.656-1.729,12.833
				l52.625,92.01C341.646,332.125,341.271,333.854,339.792,335.344z"/>
		</g>
	</g>
</g>
<g>
</g>
<g>
</g>
<g>
</g>
<g>
</g>
<g>
</g>
<g>
</g>
<g>
</g>
<g>
</g>
<g>
</g>
<g>
</g>
<g>
</g>
<g>
</g>
<g>
</g>
<g>
</g>
<g>
</g>
</svg>
