<svg id="Capa_1" enable-background="new 0 0 512 512" height="42" viewBox="0 0 512 512" width="42" xmlns="http://www.w3.org/2000/svg"><g><g><path d="m380.3 181.25-44.3-39.25-94.28-19.37c-68.232 6.031-124.081 54.88-140.67 119.37-3.29 12.78-5.05 26.19-5.05 40 0 88.558 71.835 160 160 160 88.382 0 160-71.651 160-160 0-38.19-13.38-73.25-35.7-100.75z" fill="#a0c8ff"/><path d="m376 282h40c0 67.15-41.36 124.64-100 148.36v-8.36c0-11.05-8.95-20-20-20s-20-8.95-20-20 8.95-20 20-20h40c11.05 0 20-8.95 20-20v-40c0-11.05 8.95-20 20-20z" fill="#d5ea7a"/><path d="m456 102h-68l-32-92h-20v92h-60l-20-40h-20v40c0 22.23 18.048 40 40 40h60v100h20c18.717-46.792 22.526-56.315 40-100h60c11.05 0 20-8.95 20-20s-8.95-20-20-20z" fill="#eefaff"/><g fill="#d5ea7a"><path d="m336 142v60c0 11.05-8.95 20-20 20s-20 8.95-20 20v40c0 11.05-8.95 20-20 20s-20-8.95-20-20v-20c0-11.05-8.95-20-20-20h-20c-11.05 0-20-8.95-20-20s8.95-20 20-20 20-8.95 20-20-8.95-20-20-20h-65.83c24.87-21.94 56.59-36.28 91.55-39.37 7.01 11.61 19.74 19.37 34.28 19.37z"/><path d="m196 282c11.05 0 20 8.95 20 20s-8.95 20-20 20-20 8.95-20 20-8.95 20-20 20-20 8.95-20 20v5.83c-24.89-28.21-40-65.25-40-105.83 0-13.81 1.75-27.22 5.04-40h14.96c11.05 0 20 8.95 20 20s8.95 20 20 20z"/></g></g><g><path d="m256 512c7.015 0 14.049-.316 20.907-.941 5.5-.501 9.553-5.366 9.052-10.866s-5.371-9.552-10.866-9.052c-6.257.57-12.681.859-19.093.859-115.794 0-210-94.206-210-210 0-65.68 31.506-127.997 83.47-167.473l-.449 1.675c-1.43 5.334 1.736 10.818 7.071 12.247 5.346 1.434 10.822-1.751 12.247-7.071l7.32-27.32c1.429-5.334-1.736-10.818-7.071-12.247l-27.32-7.32c-5.337-1.432-10.818 1.736-12.248 7.071s1.736 10.818 7.071 12.248l5.708 1.53c-60.379 43.554-95.799 112.774-95.799 186.66 0 126.822 103.178 230 230 230z"/><path d="m86 282c0 94.465 76.779 170 170 170 40.974 0 78.746-14.535 108.233-38.901 4.257-3.518 4.856-9.821 1.339-14.079-3.519-4.257-9.821-4.855-14.079-1.339-8.162 6.745-16.979 12.556-26.305 17.41-3.129-13.221-15.024-23.091-29.188-23.091-5.514 0-10-4.486-10-10s4.486-10 10-10h40c16.542 0 30-13.458 30-30v-40c0-5.514 4.486-10 10-10.01h29.666c-.822 12.511-3.181 24.799-7.056 36.655-1.715 5.25 1.149 10.896 6.399 12.612 5.237 1.712 10.892-1.137 12.612-6.399 5.56-17.014 8.379-34.797 8.379-52.858 0-36.907-12.139-73.021-34.282-102.369l11.053-27.631h18.034c29.177 36.928 45.195 82.905 45.195 130 0 73.359-39.292 141.954-101.536 179.743l1.034-3.848c1.433-5.334-1.729-10.819-7.063-12.252-5.329-1.432-10.819 1.729-12.252 7.063l-7.34 27.32c-1.433 5.333 1.729 10.819 7.062 12.252l27.31 7.34c5.309 1.428 10.814-1.706 12.253-7.062 1.434-5.334-1.728-10.819-7.062-12.253l-4.124-1.108c67.989-40.891 111.718-114.911 111.718-197.195 0-46.44-14.221-91.884-40.373-130h10.373c16.542 0 30-13.458 30-30s-13.458-30-30-30h-60.891l-29.664-85.285c-1.399-4.021-5.189-6.715-9.445-6.715h-20c-5.523 0-10 4.477-10 10v82h-43.82l-17.236-34.472c-1.694-3.388-5.156-5.528-8.944-5.528h-20c-5.523 0-10 4.477-10 10v40c0 4.192.532 8.344 1.556 12.366-81.441 13.646-141.556 84.502-141.556 167.634zm190-130h50v50c0 5.514-4.486 10-10 10-16.542 0-30 13.458-30 30v40c0 5.514-4.486 10-10 10s-10-4.486-10-10v-20c0-16.542-13.458-30-30-30h-20c-5.514 0-10-4.486-10-10s4.486-10 10-10c16.542 0 30-13.458 30-30s-13.458-30-30-30h-34.935c17.112-9.909 35.991-16.287 55.849-18.796 9.437 11.874 23.626 18.796 39.086 18.796zm-166.984 100h6.984c5.514 0 10 4.486 10 10 0 16.542 13.458 30 30 30h40c5.514 0 10 4.486 10 10s-4.486 10-10 10c-16.542 0-30 13.458-30 30 0 5.514-4.486 10-10 10-10.313 0-19.427 5.232-24.828 13.181-16.339-24.504-25.172-53.398-25.172-83.181 0-10.118 1.024-20.175 3.016-30zm296.644 20h-29.66c-16.542 0-30 13.458-30 30v40c0 5.514-4.486 10-10 10h-40c-16.542 0-30 13.458-30 30s13.458 30 30 30c5.514 0 10 4.486 10 10v1.463c-16.01 5.664-32.797 8.537-50 8.537-41.768 0-81.643-17.46-110-48.027v-1.973c0-5.514 4.486-10 10-10 16.542 0 30-13.458 30-30 0-5.514 4.486-10 10-10 16.542 0 30-13.458 30-30s-13.458-30-30-30h-40c-5.514 0-10-4.486-10-10 0-16.542-13.458-30-30-30h-1.442c8.055-22.85 21.527-43.349 39.497-60h61.945c5.514 0 10 4.486 10 10s-4.486 10-10 10c-16.542 0-30 13.458-30 30s13.458 30 30 30h20c5.514 0 10 4.486 10 10v20c0 16.542 13.458 30 30 30s30-13.458 30-30v-40c0-5.514 4.486-10 10-10 3.506 0 6.87-.61 10-1.72v11.72c0 5.523 4.477 10 10 10h20c4.089 0 7.766-2.489 9.285-6.286l17.528-43.82c13.269 21.032 21.172 45.2 22.847 70.106zm-59.66-252h2.891l25.044 72h-27.935zm-100 52h3.82l17.236 34.472c1.694 3.388 5.156 5.528 8.944 5.528h180c5.514 0 10 4.486 10 10s-4.486 10-10 10c-22.179 0-38.842 0-60 0-4.089 0-7.766 2.489-9.285 6.286-8.55 21.375-28.963 72.407-37.486 93.714h-3.229v-90c0-5.523-4.477-10-10-10h-60c-16.972 0-30-13.764-30-30z"/><circle cx="388" cy="372" r="10"/></g></g></svg>