<?xml version="1.0" encoding="iso-8859-1"?>
<!-- Generator: Adobe Illustrator 19.0.0, SVG Export Plug-In . SVG Version: 6.00 Build 0)  -->
<svg version="1.1" id="Capa_1" xmlns="http://www.w3.org/2000/svg" xmlns:xlink="http://www.w3.org/1999/xlink" x="0px" y="0px"
	 viewBox="0 0 496 496" style="enable-background:new 0 0 496 496;" xml:space="preserve">
<g>
	<g>
		<g>
			<path d="M472,0c-13.232,0-24,10.768-24,24v56c0,4.416-3.592,8-8,8c-4.408,0-8-3.584-8-8V24c0-13.232-10.768-24-24-24
				s-24,10.768-24,24v56c0,4.416-3.592,8-8,8c-4.408,0-8-3.584-8-8V24c0-13.232-10.768-24-24-24s-24,10.768-24,24v96
				c0,32.576,24.472,59.552,56,63.504V280h16V168h-8c-26.472,0-48-21.528-48-48V24c0-4.416,3.592-8,8-8c4.408,0,8,3.584,8,8v56
				c0,13.232,10.768,24,24,24s24-10.768,24-24V24c0-4.416,3.592-8,8-8c4.408,0,8,3.584,8,8v56c0,13.232,10.768,24,24,24
				s24-10.768,24-24V24c0-4.416,3.592-8,8-8c4.408,0,8,3.584,8,8v96c0,26.472-21.528,48-48,48h-8v184h16V183.504
				c31.528-3.944,56-30.92,56-63.504V24C496,10.768,485.232,0,472,0z"/>
			<path d="M432,432H64c-13.232,0-24,10.768-24,24v16c0,13.232,10.768,24,24,24h368c13.232,0,24-10.768,24-24v-16
				C456,442.768,445.232,432,432,432z M440,472c0,4.416-3.592,8-8,8H64c-4.408,0-8-3.584-8-8v-16c0-4.416,3.592-8,8-8h368
				c4.408,0,8,3.584,8,8V472z"/>
			<path d="M168,216v50.312C107.352,289.08,64,347.496,64,416h16c0-79.4,64.6-144,144-144h48c79.4,0,144,64.6,144,144h16
				c0-68.504-43.352-126.92-104-149.688V216c0-13.232-10.768-24-24-24H192C178.768,192,168,202.768,168,216z M280,256.408
				c-2.664-0.136-5.296-0.408-8-0.408h-48c-2.704,0-5.336,0.272-8,0.408V240h64V256.408z M184,216c0-4.416,3.592-8,8-8h112
				c4.408,0,8,3.584,8,8v45.264c-5.24-1.352-10.568-2.44-16-3.264v-34h-96v34c-5.432,0.824-10.76,1.912-16,3.264V216z"/>
			<path d="M96,416h16c0-5.008,0.336-10.032,0.992-14.936l-15.856-2.128C96.376,404.544,96,410.288,96,416z"/>
			<path d="M201.592,306.24l-3.184-15.688c-46.72,9.496-85.112,45.336-97.808,91.312l15.424,4.264
				C127.136,345.896,160.72,314.536,201.592,306.24z"/>
			<path d="M56,352h16V183.232l-6.552-1.2C32.168,175.92,16,155.632,16,120C16,78.056,38.88,16,88,16s72,62.056,72,104
				c0,35.632-16.168,55.92-49.448,62.032l-6.552,1.2V280h16v-83.64c36.672-9.104,56-35.368,56-76.36C176,70.168,148.696,0,88,0
				S0,70.168,0,120c0,40.992,19.328,67.256,56,76.36V352z"/>
		</g>
	</g>
</g>
<g>
</g>
<g>
</g>
<g>
</g>
<g>
</g>
<g>
</g>
<g>
</g>
<g>
</g>
<g>
</g>
<g>
</g>
<g>
</g>
<g>
</g>
<g>
</g>
<g>
</g>
<g>
</g>
<g>
</g>
</svg>
